<svg width="300" height="300" viewBox="0 0 300 300" fill="none" xmlns="http://www.w3.org/2000/svg">
<path opacity="0.6" d="M227.403 61.8984H149.003C135.603 61.8984 124.703 72.7984 124.703 86.2984V126.498H134.203V86.1984C134.203 77.9984 140.903 71.3984 149.003 71.3984H227.303C235.503 71.3984 242.103 78.0984 242.103 86.1984V138.398C242.103 146.598 235.403 153.198 227.303 153.198H214.203C211.603 153.198 209.403 155.298 209.403 157.998V164.698L201.003 154.898C200.103 153.798 198.803 153.198 197.403 153.198H172.203V162.698H195.203L210.603 180.598C211.503 181.698 212.903 182.298 214.203 182.298C214.803 182.298 215.303 182.198 215.803 181.998C217.703 181.298 218.903 179.498 218.903 177.498V162.698H227.203C240.603 162.698 251.503 151.798 251.603 138.298V86.1984C251.703 72.7984 240.803 61.8984 227.403 61.8984Z" fill="#299A8D"/>
<path d="M173.703 137.699C172.603 134.899 171.003 132.399 169.103 130.199C167.903 128.699 166.303 127.499 166.303 127.499C165.603 126.999 165.003 126.499 164.403 126.199C160.903 123.999 157.603 123.099 155.503 122.599C154.003 122.299 152.503 122.199 151.103 122.199H72.6031C59.2031 122.199 48.3031 133.099 48.2031 146.599V198.799C48.2031 212.199 59.1031 223.099 72.6031 223.199H80.9031V237.999C80.9031 239.999 82.1031 241.799 84.0031 242.499C84.5031 242.699 85.1031 242.799 85.6031 242.799C87.0031 242.799 88.3031 242.199 89.2031 241.099L104.603 223.199H151.003C164.403 223.199 175.303 212.299 175.403 198.799V146.599C175.303 143.499 174.803 140.499 173.703 137.699ZM85.7031 213.599H72.6031C64.4031 213.599 57.8031 206.899 57.8031 198.799V146.599C57.8031 138.399 64.5031 131.799 72.6031 131.799H151.003C159.203 131.799 165.803 138.499 165.803 146.599V198.799C165.803 206.999 159.103 213.599 151.003 213.599H102.503C101.103 213.599 99.8031 214.199 98.9031 215.299L90.5031 225.099V218.399C90.5031 215.699 88.3031 213.599 85.7031 213.599Z" fill="#299A8D"/>
<path d="M111.802 204.997C91.8016 204.997 75.6016 188.797 75.6016 168.797C75.6016 165.997 77.8016 163.797 80.6016 163.797C83.4016 163.797 85.6016 165.997 85.6016 168.797C85.6016 183.297 97.4016 194.997 111.802 194.997C126.202 194.997 138.002 183.197 138.002 168.797C138.002 165.997 140.202 163.797 143.002 163.797C145.802 163.797 148.002 165.997 148.002 168.797C148.002 188.797 131.802 204.997 111.802 204.997Z" fill="#299A8D"/>
<g opacity="0.6">
<path d="M172.201 96.1977C171.601 95.3977 170.801 94.7977 169.801 94.4977C169.001 94.1977 168.101 94.0977 167.201 94.1977H167.001C166.801 94.1977 166.501 94.2977 166.101 94.3977L165.801 94.4977L165.401 94.6977C164.901 94.8977 164.501 95.2977 164.001 95.6977L163.801 95.8977L152.001 112.398C151.101 113.598 150.901 114.998 151.401 116.298C151.701 117.098 152.401 118.198 153.901 118.898C154.901 119.398 156.001 119.498 157.201 119.298C158.601 119.098 159.701 118.398 160.501 117.398L168.001 106.798L175.901 117.298C176.401 117.998 177.301 118.898 179.001 119.198C180.201 119.398 181.301 119.298 182.401 118.898C184.001 118.198 184.701 117.098 185.001 116.298C185.201 115.798 185.301 115.398 185.301 114.898C185.301 113.998 185.001 113.098 184.401 112.398L172.201 96.1977Z" fill="#299A8D"/>
<path d="M224.301 112.398L212.201 96.1977C211.601 95.3977 210.801 94.7977 209.801 94.4977C209.001 94.1977 208.101 94.0977 207.201 94.1977H207.001C206.801 94.1977 206.501 94.2977 206.101 94.3977L205.801 94.4977L205.401 94.6977C204.901 94.8977 204.501 95.2977 204.001 95.6977L203.801 95.8977L192.001 112.398C191.101 113.598 190.901 114.998 191.401 116.298C191.701 117.098 192.401 118.198 193.901 118.898C194.901 119.398 196.001 119.498 197.201 119.298C198.501 119.098 199.701 118.398 200.501 117.398L208.001 106.798L215.901 117.298C216.401 117.998 217.301 118.898 219.001 119.198C220.201 119.398 221.301 119.298 222.401 118.898C224.001 118.198 224.701 117.098 225.001 116.298C225.201 115.798 225.301 115.398 225.301 114.898C225.201 113.998 224.901 113.098 224.301 112.398Z" fill="#299A8D"/>
</g>
</svg>
